<svg width="127" height="35" viewBox="0 0 127 35" fill="none" xmlns="http://www.w3.org/2000/svg">
<path d="M26.5371 17.5C26.5371 22.1201 22.6817 25.8654 17.9259 25.8654C13.1702 25.8654 9.31483 22.1201 9.31483 17.5C9.31483 12.8799 13.1702 9.13461 17.9259 9.13461C22.6817 9.13461 26.5371 12.8799 26.5371 17.5Z" fill="#FFC700"/>
<path d="M19.0023 5.99759C19.0023 6.5751 18.5204 7.04327 17.9259 7.04327C17.3315 7.04327 16.8496 6.5751 16.8496 5.99759C16.8496 5.42008 17.3315 4.95192 17.9259 4.95192C18.5204 4.95192 19.0023 5.42008 19.0023 5.99759Z" fill="#FFC700"/>
<path d="M19.0023 29.0024C19.0023 29.5799 18.5204 30.0481 17.9259 30.0481C17.3315 30.0481 16.8496 29.5799 16.8496 29.0024C16.8496 28.4249 17.3315 27.9567 17.9259 27.9567C18.5204 27.9567 19.0023 28.4249 19.0023 29.0024Z" fill="#FFC700"/>
<path d="M29.7662 18.5457C29.1718 18.5457 28.6898 18.0775 28.6898 17.5C28.6898 16.9225 29.1718 16.4543 29.7662 16.4543C30.3607 16.4543 30.8426 16.9225 30.8426 17.5C30.8426 18.0775 30.3607 18.5457 29.7662 18.5457Z" fill="#FFC700"/>
<path d="M6.08567 18.5457C5.49119 18.5457 5.00928 18.0775 5.00928 17.5C5.00928 16.9225 5.49119 16.4543 6.08567 16.4543C6.68014 16.4543 7.16206 16.9225 7.16206 17.5C7.16206 18.0775 6.68014 18.5457 6.08567 18.5457Z" fill="#FFC700"/>
<path d="M27.0594 10.106C26.639 10.5143 25.9575 10.5143 25.5372 10.106C25.1168 9.69762 25.1168 9.03553 25.5372 8.62717C25.9575 8.21881 26.639 8.21881 27.0594 8.62717C27.4798 9.03553 27.4798 9.69762 27.0594 10.106Z" fill="#FFC700"/>
<path d="M10.3147 26.3728C9.89436 26.7812 9.21283 26.7812 8.79247 26.3728C8.37212 25.9645 8.37212 25.3024 8.79247 24.894C9.21283 24.4857 9.89436 24.4857 10.3147 24.894C10.7351 25.3024 10.7351 25.9645 10.3147 26.3728Z" fill="#FFC700"/>
<path d="M25.5372 26.3727C25.1168 25.9644 25.1168 25.3023 25.5372 24.8939C25.9575 24.4856 26.639 24.4856 27.0594 24.8939C27.4798 25.3023 27.4798 25.9644 27.0594 26.3727C26.639 26.7811 25.9575 26.7811 25.5372 26.3727Z" fill="#FFC700"/>
<path d="M8.79248 10.1059C8.37212 9.69751 8.37212 9.03542 8.79248 8.62706C9.21283 8.2187 9.89436 8.2187 10.3147 8.62706C10.7351 9.03542 10.7351 9.69751 10.3147 10.1059C9.89436 10.5142 9.21283 10.5142 8.79248 10.1059Z" fill="#FFC700"/>
<path d="M36.679 13.801V12.7896H43.9342V13.801H40.8923V22.2046H39.7209V13.801H36.679Z" fill="black"/>
<path d="M45.7422 22.2046V12.7896H51.5804V13.801H46.9136V16.9822H51.2781V17.9936H46.9136V21.1932H51.656V22.2046H45.7422Z" fill="black"/>
<path d="M60.9282 12.7896V22.2046H59.7568V13.801H54.8821V22.2046H53.7107V12.7896H60.9282Z" fill="black"/>
<path d="M62.4598 22.2046V21.1565H62.7432C63.1463 21.1565 63.4596 21.0308 63.6832 20.7795C63.9068 20.5282 64.0674 20.1221 64.165 19.5613C64.2657 19.0004 64.3334 18.2572 64.3681 17.3316L64.5381 12.7896H70.433V22.2046H69.2616V13.801H65.6529L65.5017 17.5523C65.4639 18.5391 65.371 19.3789 65.223 20.0715C65.075 20.7642 64.8152 21.2928 64.4437 21.6576C64.0721 22.0223 63.5304 22.2046 62.8188 22.2046H62.4598Z" fill="black"/>
<path d="M73.6427 16.7432H76.4012C77.094 16.7432 77.6781 16.8535 78.1536 17.0742C78.6323 17.2949 78.9944 17.6059 79.24 18.0074C79.4888 18.4089 79.6132 18.8824 79.6132 19.4279C79.6132 19.9735 79.4888 20.4546 79.24 20.8714C78.9944 21.2882 78.6323 21.6146 78.1536 21.8506C77.6781 22.0866 77.094 22.2046 76.4012 22.2046H72.7735V12.7896H73.945V21.2116H76.4012C76.842 21.2116 77.2152 21.1258 77.5207 20.9542C77.8293 20.7795 78.0623 20.5558 78.2197 20.283C78.3803 20.0072 78.4606 19.716 78.4606 19.4095C78.4606 18.959 78.2827 18.5713 77.9269 18.2465C77.571 17.9185 77.0625 17.7546 76.4012 17.7546H73.6427V16.7432ZM81.7293 12.7896V22.2046H80.5579V12.7896H81.7293Z" fill="black"/>
<path d="M84.0745 12.7896H85.227V20.2003H85.3215L90.6118 12.7896H91.7455V22.2046H90.574V14.8124H90.4796L85.2081 22.2046H84.0745V12.7896ZM88.8358 10.4359H89.875C89.875 10.9324 89.6986 11.3385 89.3459 11.6541C88.9932 11.9698 88.5146 12.1277 87.91 12.1277C87.3148 12.1277 86.8409 11.9698 86.4882 11.6541C86.1387 11.3385 85.9639 10.9324 85.9639 10.4359H87.0031C87.0031 10.6749 87.0708 10.8849 87.2062 11.0657C87.3447 11.2465 87.5793 11.3369 87.91 11.3369C88.2406 11.3369 88.4768 11.2465 88.6185 11.0657C88.7634 10.8849 88.8358 10.6749 88.8358 10.4359Z" fill="black"/>
<path d="M105.067 12.7896V22.2046H103.895V13.801H99.0208V22.2046H97.8494V12.7896H105.067Z" fill="black"/>
<path d="M115.592 17.4971C115.592 18.4901 115.408 19.3482 115.039 20.0715C114.671 20.7948 114.166 21.3526 113.523 21.7449C112.881 22.1372 112.147 22.3333 111.322 22.3333C110.497 22.3333 109.763 22.1372 109.121 21.7449C108.478 21.3526 107.973 20.7948 107.605 20.0715C107.236 19.3482 107.052 18.4901 107.052 17.4971C107.052 16.5041 107.236 15.646 107.605 14.9227C107.973 14.1994 108.478 13.6416 109.121 13.2494C109.763 12.8571 110.497 12.6609 111.322 12.6609C112.147 12.6609 112.881 12.8571 113.523 13.2494C114.166 13.6416 114.671 14.1994 115.039 14.9227C115.408 15.646 115.592 16.5041 115.592 17.4971ZM114.458 17.4971C114.458 16.6819 114.318 15.9939 114.038 15.433C113.761 14.8722 113.385 14.4477 112.909 14.1596C112.437 13.8715 111.908 13.7275 111.322 13.7275C110.736 13.7275 110.206 13.8715 109.73 14.1596C109.258 14.4477 108.882 14.8722 108.601 15.433C108.324 15.9939 108.186 16.6819 108.186 17.4971C108.186 18.3124 108.324 19.0004 108.601 19.5613C108.882 20.1221 109.258 20.5466 109.73 20.8347C110.206 21.1228 110.736 21.2668 111.322 21.2668C111.908 21.2668 112.437 21.1228 112.909 20.8347C113.385 20.5466 113.761 20.1221 114.038 19.5613C114.318 19.0004 114.458 18.3124 114.458 17.4971Z" fill="black"/>
<path d="M116.73 22.2046V21.1565H117.014C117.417 21.1565 117.73 21.0308 117.954 20.7795C118.177 20.5282 118.338 20.1221 118.436 19.5613C118.536 19.0004 118.604 18.2572 118.639 17.3316L118.809 12.7896H124.704V22.2046H123.532V13.801H119.923L119.772 17.5523C119.735 18.5391 119.642 19.3789 119.494 20.0715C119.346 20.7642 119.086 21.2928 118.714 21.6576C118.343 22.0223 117.801 22.2046 117.089 22.2046H116.73Z" fill="black"/>
</svg>
